<svg xmlns="http://www.w3.org/2000/svg" width="42.324" height="29.305" viewBox="0 0 42.324 29.305">
  <path id="Icon_ionic-logo-youtube" data-name="Icon ionic-logo-youtube" d="M42.049,10.971a6.148,6.148,0,0,0-6.118-6.2c-4.58-.2-9.251-.275-14.022-.275H20.421c-4.762,0-9.442.076-14.022.275a6.16,6.16,0,0,0-6.11,6.212C.083,13.7-.008,16.42,0,19.136q-.012,4.075.281,8.158a6.167,6.167,0,0,0,6.11,6.219c4.812.206,9.748.3,14.766.29q7.54.023,14.766-.29a6.168,6.168,0,0,0,6.118-6.219c.2-2.724.289-5.441.281-8.165Q42.347,15.054,42.049,10.971ZM17.114,26.623v-15L29.1,19.121Z" transform="translate(0 -4.5)"/>
</svg>
